<svg xmlns="http://www.w3.org/2000/svg" height="24" viewBox="0 -960 960 960" width="24"><path d="M468-52q-87-8-162.5-42t-132-89.5Q117-239 84.5-313.903 52-388.806 52-480q0-78 26-147.5T150-752H75v-136h313v313H252v-87q-31 38-47.5 84.034Q188-531.932 188-480q0 112.716 80.5 195.192Q349-202.331 468-187v135Zm-45-216L232-458l85-85 106 106 219-219 85 85-304 303ZM572-72v-313h136v87q31-38 47.5-84.206T772-480q0-112.716-80.5-195.192Q611-757.669 492-773v-135q176 17 296 138.64Q908-647.721 908-480q0 78-26 147.5T810-208h75v136H572Z" fill="#000000"/></svg>