<svg xmlns="http://www.w3.org/2000/svg" height="48" viewBox="0 96 960 960" width="48"><path d="M149 997q-37.175 0-64.088-26.912Q58 943.175 58 906V445q0-37.588 26.912-64.794Q111.825 353 149 353h219V228q0-32.125 20.822-53.562Q409.644 153 443.911 153h73.678q32.536 0 53.973 21.438Q593 195.875 593 228v125h218q37.588 0 64.794 27.206Q903 407.412 903 445v461q0 37.175-27.206 64.088Q848.588 997 811 997H149Zm0-91h662V445H593v30q-4 31-26.5 46t-48.911 15h-74.178Q416 536 392.5 520.5T368 475v-30H149v461Zm84-90h237v-13q0-18-9-32t-22.128-17.692q-31.975-11.654-49.923-14.981Q371 735 354 735q-19 0-40 4.5T266 753q-14.583 5.135-23.792 18.089Q233 784.043 233 803v13Zm335-67h168v-48H568v48Zm-213.735-48q22.235 0 37.485-15.515Q407 669.971 407 647.735q0-22.235-15.056-37.485Q376.887 595 354.235 595q-21.735 0-37.485 15.056Q301 625.113 301 647.765q0 21.735 15.515 37.485Q332.029 701 354.265 701ZM568 637h168v-48H568v48ZM452 453h57V237h-57v216Zm28 222Z"/></svg>