<svg xmlns="http://www.w3.org/2000/svg" height="20" viewBox="0 -960 960 960" width="20"><path d="M479.8-372q-12.343 0-24.643-5.227Q442.857-382.455 434-391L269-557q-19-18-19.125-44.571-.125-26.572 19.647-45Q289-666 315-665.5t45 20.5l56 57v-210q0-27.3 18.289-45.65 18.29-18.35 45-18.35Q506-862 525-843.65T544-798v210l57-57q17.4-20 43.267-20.577 25.866-.577 46.211 19.577Q710-627 709.5-601T690-555L525-391q-9.043 8.545-21.093 13.773Q491.857-372 479.8-372ZM273.717-146q-53.842 0-90.779-37.087Q146-220.175 146-274v-8q0-25.9 18.289-44.95 18.29-19.05 45-19.05Q236-346 255-326.95T274-282v8h412v-8q0-25.9 18.99-44.95Q723.979-346 749.789-346 777-346 795.5-326.95T814-282v8q0 53.825-37.099 90.913Q739.801-146 685.96-146H273.717Z" style="fill: white;"/></svg>