<!DOCTYPE svg PUBLIC "-//W3C//DTD SVG 1.1//EN" "http://www.w3.org/Graphics/SVG/1.1/DTD/svg11.dtd">
<!-- Uploaded to: SVG Repo, www.svgrepo.com, Transformed by: SVG Repo Mixer Tools -->
<svg fill="#fcfcfd" height="800px" width="800px" version="1.1" id="Capa_1" xmlns="http://www.w3.org/2000/svg" xmlns:xlink="http://www.w3.org/1999/xlink" viewBox="-77.5 -77.5 465.00 465.00" xml:space="preserve" stroke="#fcfcfd">
<g id="SVGRepo_bgCarrier" stroke-width="0">
<rect x="-77.5" y="-77.5" width="465.00" height="465.00" rx="232.5" fill="#0e2f52" strokewidth="0"/>
</g>
<g id="SVGRepo_tracerCarrier" stroke-linecap="round" stroke-linejoin="round"/>
<g id="SVGRepo_iconCarrier"> <g> <polygon points="253.381,206.25 253.381,299.157 253.381,299.465 310,299.465 310,238.977 "/> <polygon points="0,299.465 56.619,299.465 56.619,299.157 56.619,206.178 0,238.977 "/> <path d="M66.619,174.559v124.598h58.047v-52.825c0-16.568,13.432-30,30-30h0.668c16.568,0,30,13.432,30,30v52.825h58.047V174.559 L155,101.247L66.619,174.559z"/> <polygon points="27.502,161.587 42.498,179.785 155,87.083 267.502,179.785 282.498,161.587 162,62.297 162,40.202 183.631,40.202 183.631,26.202 162,26.202 162,10.535 148,10.535 148,26.202 126.369,26.202 126.369,40.202 148,40.202 148,62.297 "/> </g> </g>
</svg>