<svg width="1600" height="1536" xmlns="http://www.w3.org/2000/svg" version="1.1">

 <g>
  <title>Layer 1</title>
  <ellipse stroke="#000" ry="764.99995" rx="798.3333" id="svg_7" cy="770.33325" cx="800.00004" fill="#0e2f52"/>
  <g stroke="null" id="svg_8">
   <path stroke="null" stroke-width="0" id="svg_1" fill="#FAFCFC" d="m640.97447,241.29255c17.55163,-0.04615 35.01231,-0.07384 52.56394,-0.0923c8.13013,-0.00923 16.27845,-0.02769 24.37221,-0.04615c7.08431,-0.01846 14.18681,-0.02769 21.28021,-0.03692c3.75587,0 7.51173,-0.00923 11.27669,-0.01846c3.52851,-0.00923 7.05703,-0.01846 10.54916,-0.01846c1.29136,0 2.59182,0 3.89228,-0.00923c1.76426,-0.00923 3.53761,0 5.30186,0c1.49143,0 1.49143,0 3.00106,-0.00923c2.32809,0.23076 2.32809,0.23076 4.14691,2.07684c-0.28192,6.34129 -2.14621,12.73797 -3.63764,18.83004c-0.1546,0.61844 -0.30011,1.23688 -0.45471,1.883c-0.63659,2.5199 -1.30955,4.95673 -2.28262,7.36587c-1.24589,3.23064 -1.90067,6.57205 -2.61001,9.96885c-0.3092,1.47687 -0.62749,2.96296 -0.94579,4.43983c-0.16369,0.74766 -0.32739,1.50456 -0.49108,2.27991c-0.78209,3.62755 -1.60056,7.25511 -2.41903,10.89189c-0.21826,0.96919 -0.21826,0.96919 -0.43652,1.95685c-0.59112,2.55682 -1.20952,4.99365 -2.20077,7.43048c-1.44596,3.77524 -1.92795,7.76278 -2.58273,11.72263c-0.57293,3.34141 -1.32774,6.03669 -2.85555,9.03658c-0.51836,2.14146 -0.99126,4.30137 -1.41868,6.46129c-0.69115,3.40602 -1.37321,6.78435 -2.21896,10.15346c-0.32739,1.35687 -0.65478,2.71374 -0.99126,4.07061c-3.51942,14.49175 -3.51942,14.49175 -5.02904,19.38387c-1.41868,4.57829 -2.33719,9.23041 -3.30116,13.93793c-1.48234,7.0705 -3.31026,14.03023 -5.28368,20.95304c-1.60056,5.59363 -2.91011,11.1688 -4.03778,16.89166c-1.18223,6.009 -2.51907,11.99954 -4.1742,17.907c-4.13782,14.30714 -4.13782,14.30714 -6.7933,28.8912c-0.40014,2.59375 -0.40014,2.59375 -2.21896,4.43983c-0.52746,2.44606 -0.97307,4.8552 -1.36412,7.32895c-1.11858,7.0705 -1.11858,7.0705 -3.18294,10.24576c-0.4638,1.7907 -0.4638,1.7907 -0.70934,3.73832c-0.10913,0.71997 -0.21826,1.43994 -0.32739,2.18761s-0.21826,1.49533 -0.32739,2.27068c-0.66387,4.60598 -1.33683,8.73197 -3.18294,13.01488c-0.48199,1.79993 -0.93669,3.60909 -1.36412,5.42748c-0.70025,2.9445 -1.42777,5.86131 -2.27353,8.77812c-0.95488,3.50756 -1.60966,7.02435 -2.21896,10.61498c-0.84575,4.80905 -1.86429,9.41502 -3.51942,14.03023c-0.65478,1.87377 -1.13676,3.73832 -1.59147,5.66747c-0.85485,3.51679 -0.85485,3.51679 -1.81882,6.28591c-0.83666,2.71374 -1.15495,5.27057 -1.45506,8.08584c-0.47289,3.18449 -1.35502,6.23053 -2.22806,9.32272c-0.93669,3.34141 -1.80973,6.69205 -2.68276,10.06115c-0.87303,3.34141 -1.75516,6.67359 -2.71914,9.96885c-0.80938,2.96296 -1.37321,5.84285 -1.82792,8.87966c-0.47289,3.0645 -0.96398,6.05515 -1.76426,9.05504c4.45611,-0.37845 8.6394,-0.96919 12.91363,-2.13223c7.22072,-1.86454 14.45963,-3.43371 21.73492,-5.02135c1.47325,-0.32306 2.95559,-0.64613 4.43792,-0.96919c7.31166,-1.59686 14.64151,-3.18449 21.9168,-4.74443c0.66387,-0.13846 1.32774,-0.28614 2.0098,-0.4246c3.12837,-0.67382 6.26584,-1.33841 9.36693,-2.003c6.44772,-1.3661 12.82269,-2.87989 19.27951,-4.53213c6.3295,-1.62455 12.73175,-3.05527 19.09763,-4.46752c3.57398,-0.79382 7.14797,-1.59686 10.73105,-2.39991c0.71843,-0.16615 1.44596,-0.32306 2.18259,-0.48921c24.09939,-5.44594 48.28971,-11.0765 72.02533,-17.99931c9.91258,-2.80605 9.91258,-2.80605 14.27775,-2.80605c-0.71843,-3.26757 -1.43687,-6.53513 -2.1644,-9.78424c-0.20007,-0.92304 -0.40014,-1.84608 -0.60931,-2.79682c-0.20007,-0.90458 -0.40014,-1.79993 -0.60021,-2.72297c-0.18188,-0.82151 -0.36376,-1.64301 -0.54565,-2.49221c-0.60931,-2.54759 -0.60931,-2.54759 -1.52781,-5.20595c-0.93669,-2.87066 -1.60056,-5.7044 -2.22806,-8.65813c-0.34558,-1.62455 -0.34558,-1.62455 -0.70025,-3.28603c-0.48199,-2.27068 -0.95488,-4.54136 -1.43687,-6.81205c-0.34558,-1.62455 -0.34558,-1.62455 -0.70025,-3.28603c-0.20916,-0.97842 -0.41833,-1.96608 -0.62749,-2.98142c-0.64568,-2.57529 -1.52781,-4.88289 -2.50088,-7.33818c-0.34558,-1.43994 -0.64568,-2.89835 -0.90941,-4.35676c-0.14551,-0.80305 -0.30011,-1.60609 -0.45471,-2.4276c-0.30011,-1.6707 -0.60931,-3.34141 -0.90941,-5.01211c-0.14551,-0.80305 -0.30011,-1.60609 -0.45471,-2.4276c-0.12732,-0.7292 -0.26373,-1.44918 -0.40014,-2.19684c-0.52746,-2.11376 -1.34593,-3.80293 -2.32809,-5.73209c-0.56383,-2.17838 -1.0731,-4.37522 -1.5369,-6.57205c-0.24554,-1.1538 -0.49108,-2.29837 -0.74572,-3.47064c-0.44561,-2.87989 -0.44561,-2.87989 0.4638,-4.72597l-1.81882,0l-2.72823,-13.84562l-0.90941,0c-0.17279,-1.08919 -0.35467,-2.17838 -0.53655,-3.30449c-0.23645,-1.43994 -0.47289,-2.87066 -0.71843,-4.3106c-0.16369,-1.07996 -0.16369,-1.07996 -0.34558,-2.17838c-0.60021,-3.55371 -1.26408,-6.39668 -2.94649,-9.59963c-0.4638,-1.9107 -0.87303,-3.83985 -1.25499,-5.76901c-1.14586,-5.68594 -2.45541,-11.26111 -3.87409,-16.89166c-2.32809,-9.23041 -2.32809,-9.23041 -1.2368,-11.44571l-1.81882,0c-2.87374,-9.78424 -5.25639,-19.56848 -6.96609,-29.62963c-0.12732,-0.78459 -0.26373,-1.55994 -0.40923,-2.36299c-0.10913,-0.68305 -0.22735,-1.37533 -0.34558,-2.07684c-0.50018,-2.08607 -1.31865,-3.72909 -2.28262,-5.63055c-0.50018,-2.08607 -0.95488,-4.18138 -1.36412,-6.28591c-0.68206,-3.39679 -1.3823,-6.71051 -2.32809,-10.06115c-1.00035,-3.5814 -1.59147,-7.17203 -2.1644,-10.89189c-0.39105,-2.3076 -0.39105,-2.3076 -1.3914,-4.04292c-1.66422,-3.55371 -2.0007,-7.52279 -2.6282,-11.35341c-0.6184,-3.72909 -0.6184,-3.72909 -1.94614,-7.23664c-1.7006,-3.45217 -1.98252,-7.43971 -2.60091,-11.26111c-0.57293,-3.3691 -1.33683,-6.05515 -2.85555,-9.08273c-0.50018,-2.28914 -0.96398,-4.55982 -1.36412,-6.86743c-0.81847,-4.71674 -0.81847,-4.71674 -2.27353,-9.23041c-1.47325,-3.77524 -1.94614,-7.77201 -2.60091,-11.72263c-0.57293,-3.35064 -1.34593,-6.01823 -2.85555,-9.03658c-0.54565,-2.39068 -1.03673,-4.74443 -1.47325,-7.15357c-0.12732,-0.64613 -0.24554,-1.28303 -0.37286,-1.94762c-0.30011,-1.5784 -0.59112,-3.16603 -0.88213,-4.74443l-0.90941,0c-0.10913,-5.30749 -0.10913,-5.30749 0.90941,-7.38433c17.64257,-0.11076 35.28514,-0.18461 52.83677,-0.23999c8.1756,-0.01846 16.36939,-0.05538 24.55409,-0.11076c7.12978,-0.04615 14.27775,-0.07384 21.37115,-0.08307c3.77405,-0.00923 7.5572,-0.01846 11.36763,-0.05538c3.5467,-0.02769 7.1025,-0.03692 10.64011,-0.03692c1.30046,0 2.61001,-0.00923 3.91047,-0.02769c1.78245,-0.01846 3.56489,-0.00923 5.33824,0c1.00035,-0.00923 1.99161,-0.00923 3.01924,-0.01846c2.45541,0.57229 2.45541,0.57229 4.10144,2.77835c2.66457,5.93516 4.91082,11.99954 6.80239,18.18392c0.66387,2.02146 0.66387,2.02146 2.4645,4.53213c0.62749,1.9107 1.20952,3.83062 1.76426,5.76901c1.29136,4.40291 2.74642,8.51044 4.60162,12.73797c1.75516,4.60598 3.38301,9.23041 5.00176,13.93793c1.52781,4.36599 3.13747,8.63967 5.00176,12.83028c1.47325,3.54448 2.6282,7.14434 3.74677,10.79958c0.75481,2.19684 0.75481,2.19684 2.1644,4.32906c1.94614,3.41525 2.51907,6.92281 3.32844,10.70728c0.80028,2.8522 1.96433,4.81828 3.49214,7.32895c0.95488,2.18761 1.86429,4.35676 2.72823,6.57205c0.23645,0.60921 0.47289,1.21841 0.71843,1.83685c1.73697,4.48598 3.07381,8.98119 4.15601,13.66101c0.47289,2.08607 0.47289,2.08607 2.40084,3.75678c0.78209,2.58452 1.3914,5.18749 2.01889,7.81816c0.55474,2.46452 0.55474,2.46452 2.52816,4.18138c0.49108,1.61532 0.9185,3.25834 1.30955,4.90135c0.95488,3.76601 2.05527,6.59052 4.14691,9.87654c1.60966,3.81216 2.84646,7.76278 4.09235,11.72263c0.75481,2.33529 1.42777,4.07984 2.72823,6.17515c1.8461,3.2768 2.54635,6.67359 3.41029,10.33806c0.53655,2.38145 0.53655,2.38145 2.50088,4.08907c0.49108,1.42148 0.9185,2.87066 1.30955,4.32906c1.10948,3.95062 2.52816,7.59663 4.14691,11.35341c0.4638,1.38456 0.9185,2.76912 1.36412,4.15369c1.16405,3.65524 2.56454,7.10742 4.09235,10.61498c1.30046,3.22141 2.50997,6.47975 3.7104,9.78424c2.06436,5.5844 4.14691,11.1688 6.35678,16.70705c0.76391,1.97531 1.45506,3.95985 2.10074,5.98131c0.49108,1.50456 0.98216,3.00911 1.47325,4.50444c0.28192,0.86766 0.56383,1.73532 0.85485,2.63067c0.44561,1.32918 0.44561,1.32918 0.90941,2.67682c0.27282,0.81228 0.53655,1.62455 0.81847,2.46452c1.20952,2.72297 2.7828,4.74443 4.69256,6.99665c24.73597,-13.19949 45.19772,-27.96815 63.02217,-50.02884c0.60021,-0.73843 1.19133,-1.46764 1.80973,-2.23376c1.546,-2.20607 2.48269,-4.26445 3.36482,-6.82128l1.81882,0c0.26373,-1.02458 0.52746,-2.05838 0.80028,-3.11988c1.01854,-3.34141 1.01854,-3.34141 2.83736,-5.18749l2.72823,0c0.28192,1.04304 0.56383,2.0953 0.85485,3.17526c0.62749,3.09219 0.62749,3.09219 1.87339,4.20907c2.84646,18.64544 0.68206,37.66009 -8.1847,54.45944c-1.20042,1.55071 -2.40994,3.09219 -3.63764,4.61521c-0.43652,0.74766 -0.87303,1.4861 -1.32774,2.26145c-4.20148,7.05204 -10.00352,13.3841 -16.27845,18.64544c-1.61875,1.31995 -1.61875,1.31995 -3.32844,3.17526c-2.28262,2.24299 -4.76531,4.08907 -7.32076,5.99054c-1.40049,1.0615 -2.76461,2.16915 -4.10144,3.29526c-2.13712,1.6707 -4.3197,3.02758 -6.67508,4.33829c-1.37321,0.78459 -2.72823,1.59686 -4.07416,2.43683c-14.64151,9.01811 -30.82903,16.70705 -47.10748,22.06069c-4.02869,1.34764 -7.95734,2.90758 -11.91328,4.50444c-8.93951,3.5814 -18.00633,6.59975 -27.19138,9.59963c-2.33719,0.76612 -4.66528,1.53225 -7.00246,2.28914c-1.52781,0.49844 -3.04653,0.99688 -4.57434,1.49533c-4.51977,1.46764 -9.02135,2.97219 -13.55022,4.51367c-6.75692,2.28914 -13.55022,4.43983 -20.3708,6.53513c-0.62749,0.19384 -1.26408,0.38768 -1.91886,0.59075c-15.00528,4.59675 -30.01056,8.85197 -45.10677,13.01488c-1.77335,0.48921 -3.5467,0.97842 -5.32005,1.47687c-21.46209,5.98131 -43.10607,11.26111 -64.75005,16.61475c-0.66387,0.16615 -1.33683,0.32306 -2.02799,0.48921c-30.19244,7.34741 -60.47582,13.93793 -90.94108,20.21461c-16.91504,3.49833 -33.83008,7.0705 -50.74512,10.70728c-0.75481,0.15692 -1.50053,0.32306 -2.28262,0.48921c-34.73949,7.44894 -69.02428,16.52244 -102.76342,26.30668c-0.63659,0.18461 -1.27318,0.35999 -1.93704,0.55382c-9.36693,2.66759 -18.64292,5.3721 -28.00985,8.12276c-1.8461,0.53536 -3.69221,1.07996 -5.53831,1.62455c-23.55374,6.90435 -46.56183,14.95327 -69.11522,24.73751c-0.76391,0.32306 -1.52781,0.65536 -2.3099,0.98765c-12.1861,5.24288 -23.64468,11.44571 -35.01231,18.36852c-1.02763,0.61844 -2.04617,1.24611 -3.10109,1.883c-4.98357,3.11065 -9.54881,6.58129 -14.00493,10.43037c-1.81882,1.43994 -3.52851,2.45529 -5.62925,3.41525c-2.23715,-13.2918 1.03673,-23.81447 7.32076,-35.26018c0.80938,-1.52302 1.55509,-3.09219 2.29172,-4.65213c1.19133,-2.29837 2.1553,-3.57217 4.02869,-5.2798c1.05492,-1.18149 2.09164,-2.37222 3.12837,-3.5814c0.51836,-0.59998 1.04582,-1.20918 1.58237,-1.83685c1.18223,-1.40302 2.319,-2.83374 3.42848,-4.29214c4.6289,-5.6767 11.00387,-9.78424 16.91504,-13.93793c0.50018,-0.35999 1.00945,-0.71997 1.51872,-1.07996c2.20987,-1.55071 4.40155,-2.99988 6.74783,-4.30137c6.70236,-3.77524 8.08466,-9.02734 10.36728,-16.24553c0.62749,-1.64301 1.27318,-3.2768 1.92795,-4.90135c2.76461,-6.98742 5.13817,-13.93793 7.20253,-21.13765c0.87303,-2.54759 0.87303,-2.54759 2.69186,-4.39368c0.79119,-1.86454 0.79119,-1.86454 1.47325,-4.02446c0.40014,-1.19995 0.40014,-1.19995 0.81847,-2.4276c0.27282,-0.83997 0.54565,-1.67994 0.83666,-2.54759c1.70969,-5.19672 3.43757,-10.15346 5.96573,-14.95327c2.0098,-5.15057 3.72858,-10.43037 5.4019,-15.6917c1.09129,-3.1568 2.39175,-6.18438 3.69221,-9.23041c0.9185,-2.39068 1.79154,-4.79982 2.67367,-7.20895c1.49143,-4.07984 2.99196,-8.14123 4.60162,-12.18415c1.8461,-4.61521 3.5558,-9.32272 5.26549,-13.93793c1.2277,-3.35064 2.49179,-6.67359 3.82862,-9.96885c1.66422,-4.14446 3.10109,-8.35352 4.54705,-12.55336c1.63694,-4.77212 3.34663,-9.41502 5.45646,-14.03023c1.62785,-3.7014 3.00106,-7.50433 4.41064,-11.26111c0.9276,-2.48298 1.89157,-4.9475 2.86464,-7.40279c1.7006,-4.51367 3.31026,-9.05504 4.89263,-13.66101c1.41868,-4.07061 2.91921,-8.08584 4.60162,-12.09184c2.18259,-5.19672 4.03778,-10.52267 5.83842,-15.78401c1.3914,-4.0983 2.98287,-8.05815 4.67437,-11.99954c1.05492,-2.81528 2.06436,-5.64901 3.07381,-8.48275c2.13712,-5.96285 4.37427,-11.81493 6.82058,-17.72239c3.12837,-7.47664 5.92026,-15.04557 8.71216,-22.70682c4.0196,-10.89189 4.0196,-10.89189 6.00211,-15.87631c4.1742,-10.33806 4.1742,-10.33806 7.22072,-21.13765l1.81882,0c0.1546,-0.69228 0.3092,-1.38456 0.47289,-2.0953c1.62785,-7.00588 3.75587,-13.4764 6.71145,-20.03c2.28262,-5.09519 4.18329,-10.24576 5.94755,-15.5071c2.04617,-6.06438 4.21057,-11.99954 6.71145,-17.907c1.59147,-3.83062 3.01924,-7.71663 4.4743,-11.63032c1.12767,-2.92604 2.319,-5.80593 3.52851,-8.69505c1.99161,-4.77212 3.5558,-9.59963 4.89263,-14.58405l1.81882,0c0.19098,-1.0615 0.37286,-2.13223 0.56383,-3.23064c0.94579,-4.27368 2.3099,-8.30737 3.81043,-12.36875c0.32739,-0.88612 0.32739,-0.88612 0.65478,-1.79993c1.34593,-3.60909 2.90102,-7.05204 4.61981,-10.52267c0.40923,-0.82151 0.81847,-1.64301 1.2368,-2.49221c0.3092,-0.61844 0.6184,-1.24611 0.93669,-1.883l-0.26373,-0.27691zm203.70801,112.61105l0.90941,1.84608l-0.90941,-1.84608zm9.09411,36.92166l0.90941,1.84608l-0.90941,-1.84608zm41.8329,168.91658l0.90941,2.76912l-0.90941,-2.76912z"/>
   <path stroke="null" stroke-width="0" id="svg_2" fill="#FAFCFC" d="m1157.51979,784.04089c2.72823,0.92304 2.72823,0.92304 3.69221,2.74143c0.28192,0.76612 0.56383,1.54148 0.85485,2.33529c0.3092,0.83074 0.6184,1.66147 0.93669,2.5199c1.02763,2.99065 2.0007,5.99054 2.95559,8.99965c0.67296,2.05838 0.67296,2.05838 2.07346,4.63367c1.46415,3.10142 2.06436,5.99054 2.64639,9.32272c0.16369,0.57229 0.31829,1.13534 0.48199,1.71686l1.81882,0.92304c0.81847,2.16915 1.5369,4.30137 2.21896,6.51667c0.40014,1.2738 0.80938,2.54759 1.20952,3.82139c0.37286,1.16303 0.73662,2.31683 1.11858,3.50756c0.86394,2.48298 1.78245,4.92904 2.72823,7.38433c0.30011,0.79382 0.60021,1.5784 0.90941,2.39068c1.32774,3.45217 2.50997,6.51667 4.54705,9.59963c0.47289,1.44918 0.90941,2.90758 1.30955,4.38445c0.9185,3.23988 1.96433,6.27668 3.34663,9.32272c1.58237,3.86754 2.84646,7.86431 4.18329,11.81493c1.0731,2.79682 2.36447,5.09519 3.89228,7.66124c0.52746,1.54148 1.00035,3.10142 1.41868,4.67059c0.80028,2.97219 1.77335,5.51056 3.12837,8.25199c0.60931,1.78147 1.20042,3.57217 1.76426,5.36287c1.34593,4.17215 2.86464,8.15969 4.60162,12.18415c3.865,9.96885 3.865,9.96885 5.51103,14.95327c0.86394,2.74143 0.86394,2.74143 2.21896,5.83362c1.21861,2.89835 2.20077,5.78747 3.18294,8.76889c0.43652,0.87689 0.43652,0.87689 0.88213,1.77224c0.9185,1.89223 1.56419,3.71986 2.19168,5.72286c0.96398,3.03681 2.03708,5.99054 3.2375,8.94427c1.76426,4.37522 3.19203,8.81505 4.57434,13.2918c0.96398,2.62144 2.22806,4.78135 3.66493,7.1628c0.76391,1.97531 0.76391,1.97531 1.36412,3.92293c0.22735,0.71074 0.44561,1.43071 0.68206,2.15992c0.45471,1.4861 0.90941,2.96296 1.36412,4.44906c0.22735,0.71074 0.44561,1.42148 0.68206,2.15992c0.20007,0.64613 0.39105,1.28303 0.60021,1.94762c0.73662,2.07684 0.73662,2.07684 2.10074,4.17215c1.5369,2.66759 2.319,5.1598 3.15566,8.13199c2.29172,7.92893 2.29172,7.92893 5.51103,15.5071l1.81882,0.92304c0.50927,1.74455 0.50927,1.74455 0.90941,3.92293c0.63659,3.19372 1.47325,5.99054 2.72823,8.99965l1.30955,4.15369c0.773,2.39991 1.50053,4.28291 2.7828,6.46129c2.27353,3.83985 3.51033,8.17815 4.54705,12.55336c0.73662,2.87989 2.0098,5.52902 3.18294,8.25199c1.19133,2.87066 2.18259,5.75055 3.12837,8.71351c0.80028,2.47375 1.62785,4.6429 2.7828,6.97819c1.44596,2.93527 2.42813,5.85208 3.41029,8.96273c1.80063,5.59363 4.00141,11.0765 6.16581,16.43014c1.00035,2.55682 1.95523,5.13211 2.89193,7.71663c1.13676,3.03681 2.35537,6.02746 3.56489,9.02734c0.79119,2.123 0.79119,2.123 1.2368,4.01523c0.51836,2.02146 1.31865,3.65524 2.28262,5.4921c1.29136,2.46452 2.11893,4.67059 2.72823,7.38433c1.74607,5.78747 3.91047,11.26111 6.37497,16.79935c1.72788,3.89523 3.28297,7.71663 4.53796,11.81493c1.50053,4.84597 3.12837,9.32272 5.45646,13.84562c1.16405,2.75066 2.05527,5.39979 2.72823,8.30737c0.60021,2.15069 1.20952,4.3106 1.81882,6.46129c-6.22946,-0.52613 -12.27705,-1.43071 -18.3701,-2.66759c-0.86394,-0.17538 -1.72788,-0.34153 -2.6191,-0.5169c-1.83701,-0.35999 -3.67402,-0.7292 -5.51103,-1.09842c-4.81988,-0.95996 -9.63975,-1.90147 -14.45963,-2.84297c-0.95488,-0.18461 -1.90067,-0.36922 -2.87374,-0.56306c-9.27599,-1.81839 -18.64292,-3.47064 -28.00985,-5.0675c-4.69256,-0.79382 -9.36693,-1.64301 -14.09587,-2.50144c-12.09516,-2.20607 -24.09939,-4.41214 -36.28549,-5.889c-6.29312,-0.77535 -12.54987,-1.72609 -18.8248,-2.7322c-12.00422,-1.9107 -24.09939,-3.56294 -36.19455,-5.14134c-1.04582,-0.13846 -2.09164,-0.26768 -3.17384,-0.41537c-30.73808,-4.01523 -61.47617,-7.61509 -92.7599,-10.24576c-0.59112,-1.30149 -1.17314,-2.61221 -1.76426,-3.92293c-0.32739,-0.7292 -0.65478,-1.45841 -0.99126,-2.20607c-1.50053,-3.71063 -2.08255,-7.45817 -2.70095,-11.44571l-0.90941,0c-0.6184,-2.78759 -1.21861,-5.57517 -1.81882,-8.36276c-0.17279,-0.78459 -0.34558,-1.56917 -0.52746,-2.37222c-0.96398,-4.53213 -1.49143,-8.63044 -1.29136,-13.2918l-1.81882,0c-0.09094,-0.89535 -0.19098,-1.7907 -0.28192,-2.71374c-0.37286,-2.68605 -1.02763,-5.0675 -1.93704,-7.61509c-1.49143,-4.27368 -2.1553,-8.53813 -2.75551,-13.01488c-0.4638,-2.39068 -1.13676,-4.07984 -2.30081,-6.18438c-1.27318,-3.61832 -0.97307,-7.2828 -0.90941,-11.0765l-1.81882,0c-1.0822,-3.29526 -1.66422,-6.62744 -2.27353,-10.06115c-1.52781,-8.5289 -1.52781,-8.5289 -3.52851,-16.98396c-0.20916,-0.80305 -0.41833,-1.60609 -0.64568,-2.43683c-0.66387,-2.29837 -1.3914,-4.53213 -2.1644,-6.78435c-1.47325,-4.43983 -2.42813,-8.91658 -3.31935,-13.4764c-0.3092,-1.53225 -0.6184,-3.0645 -0.9185,-4.60598c-0.13641,-0.66459 -0.26373,-1.32918 -0.40014,-2.02146c-0.40014,-1.97531 -0.40014,-1.97531 -1.30046,-4.55982c-1.52781,-4.89212 -2.97377,-9.69193 -3.63764,-14.76866l-0.90941,0l-1.81882,-11.99954l-0.90941,0c-0.10004,-0.78459 -0.20007,-1.55994 -0.30011,-2.36299c-0.71843,-5.21518 -1.47325,-9.96885 -3.46486,-14.86097c-2.88283,-8.00277 -4.52887,-16.70705 -5.88389,-25.10673c-0.33648,-2.13223 -0.33648,-2.13223 -1.26408,-4.74443c-1.65513,-5.21518 -3.05562,-10.24576 -3.63764,-15.6917l-0.90941,0c-0.24554,-1.17226 -0.48199,-2.33529 -0.72753,-3.54448l-0.98216,-4.70751c-0.1546,-0.76612 -0.3092,-1.53225 -0.47289,-2.32606c-0.80028,-3.83985 -1.60056,-7.6797 -2.42813,-11.53802c-0.13641,-0.65536 -0.27282,-1.30149 -0.41833,-1.97531c-0.38195,-1.59686 -0.88213,-3.16603 -1.3914,-4.72597c-0.89122,-2.70451 -1.36412,-5.31672 -1.76426,-8.13199l-0.90941,0c-0.63659,-2.87989 -1.25499,-5.76901 -1.87339,-8.65813c-0.18188,-0.81228 -0.36376,-1.63378 -0.55474,-2.48298c-0.16369,-0.78459 -0.32739,-1.56917 -0.50018,-2.38145c-0.16369,-0.71997 -0.31829,-1.44918 -0.48199,-2.19684c-0.22735,-1.81839 -0.22735,-1.81839 0.68206,-3.66447l-1.81882,0c-0.29101,-1.20918 -0.57293,-2.41837 -0.85485,-3.63678c-0.23645,-1.00612 -0.23645,-1.00612 -0.47289,-2.03992c-0.67296,-3.62755 -1.03673,-7.27357 -1.40049,-10.89189c15.45998,-5.09519 31.01091,-10.06115 46.56183,-14.86097c14.91434,-4.61521 14.91434,-4.61521 29.64679,-9.78424c4.74712,-1.76301 9.54881,-3.39679 14.36869,-5.02135c0.80938,-0.26768 1.61875,-0.54459 2.45541,-0.83074c4.63799,-1.55994 9.27599,-3.11065 13.91398,-4.66136c44.01548,-12.46106 44.01548,-12.46106 82.30168,-35.90631l0.26373,0.13846zm-163.69394,175.37787l0.90941,1.84608l-0.90941,-1.84608zm0.90941,4.61521l0.90941,1.84608l-0.90941,-1.84608zm42.74231,172.60874l0.90941,1.84608l-0.90941,-1.84608z"/>
   <path stroke="null" stroke-width="0" id="svg_3" fill="#F9FBFB" d="m1219.35973,590.2022c2.48269,2.92604 3.33754,5.42748 4.14691,9.17503c0.6184,2.77835 1.21861,5.36287 2.26443,8.012c7.80274,19.84539 -0.43652,49.65963 -7.74818,68.21276c-7.03884,16.24553 -16.36939,30.36806 -28.64644,42.92143c-0.44561,0.45229 -0.89122,0.90458 -1.34593,1.37533c-21.64398,21.87608 -49.92665,35.6294 -78.11839,46.61359c-2.36447,0.91381 -4.71984,1.85531 -7.06612,2.79682c-16.00563,6.32283 -32.37502,11.53802 -48.74442,16.89166c-6.89333,2.24299 -13.82304,4.51367 -20.64362,6.78435c-2.04617,0.67382 -4.10144,1.34764 -6.14762,2.02146c-7.4117,2.4276 -14.8234,4.90135 -22.18962,7.41202c-14.18681,4.79982 -28.37362,9.09196 -42.74231,13.19949c-4.97448,1.43071 -9.91258,2.87989 -14.91434,4.32906c-17.46069,5.10442 -35.01231,10.06115 -52.56394,14.76866c-4.22876,1.13534 -8.44843,2.28914 -12.64081,3.44294c-15.55092,4.25522 -31.10185,8.46429 -46.74371,12.55336c-12.09516,3.14757 -24.19033,6.47052 -36.19455,9.78424c-16.18751,4.43983 -32.37502,8.73197 -48.56254,13.01488c-11.18575,2.91681 -22.28056,5.87054 -33.46632,8.93504c-11.18575,3.08296 -22.46245,5.95362 -33.73914,8.76889c-12.45893,3.11988 -24.91786,6.35976 -37.28584,9.78424c-4.81988,1.33841 -9.63975,2.59375 -14.55057,3.7937c-42.46948,10.70728 -84.75708,22.15299 -126.4081,36.55244c-0.76391,0.25845 -1.5369,0.52613 -2.32809,0.80305c-21.73492,7.55971 -43.46984,15.5071 -64.11346,25.66055c-1.97342,0.96919 -3.96503,1.90147 -5.95664,2.83374c-8.86676,4.17215 -17.36975,8.62121 -25.82727,13.66101c-1.02763,0.59998 -2.05527,1.19995 -3.11018,1.81839c-12.09516,7.13511 -24.28127,14.95327 -35.10326,23.99908c-0.70025,0.55382 -1.3914,1.10765 -2.10983,1.67994c-4.76531,3.81216 -9.36693,7.77201 -13.82304,11.90723c-1.43687,1.32918 -2.89193,2.64913 -4.36517,3.94139c-5.01995,4.42137 -9.63975,9.1658 -14.18681,14.03023c-0.59112,0.6369 -1.18223,1.26457 -1.79154,1.91993c-2.89193,3.13834 -5.20183,6.12899 -7.35713,9.87654l-1.81882,0c-0.26373,0.55382 -0.52746,1.10765 -0.80028,1.6707c-1.01854,2.02146 -1.01854,2.02146 -2.83736,4.79058l-1.81882,0c-0.05456,0.5169 -0.10913,1.02458 -0.17279,1.55994c-1.03673,3.00911 -3.00106,4.61521 -5.28368,6.74743c-6.9388,-11.26111 -2.01889,-32.12184 0,-44.30599c0.50927,-2.20607 1.13676,-4.30137 1.81882,-6.46129c0.20916,-0.83074 0.40923,-1.65224 0.6184,-2.51067c6.95699,-26.02977 23.00809,-48.45967 41.19631,-67.65893c0.68206,-0.7292 0.68206,-0.7292 1.3823,-1.46764c6.14762,-6.47975 12.54987,-12.36875 19.55233,-17.907c0.88213,-0.71997 1.76426,-1.43071 2.68276,-2.17838c12.36799,-9.87654 25.55444,-18.46083 39.10466,-26.39898c0.59112,-0.35076 1.19133,-0.71074 1.80063,-1.07073c18.18822,-10.79958 37.64961,-19.75309 57.38382,-26.95281c5.12908,-1.883 10.1854,-3.82139 15.2781,-5.86131c7.35713,-2.96296 14.73245,-5.54748 22.37151,-7.85508c2.63729,-0.81228 5.26549,-1.66147 7.89369,-2.51067c30.91997,-9.96885 62.38558,-18.27622 93.66931,-26.21438c2.56454,-0.65536 5.11998,-1.31995 7.67543,-1.99377c3.81043,-0.96919 7.62086,-1.7907 11.45858,-2.53836c7.89369,-1.56917 15.64187,-3.53525 23.4628,-5.47364c8.07557,-1.99377 16.18751,-3.886 24.28127,-5.72286c14.8234,-3.35064 29.55585,-7.00588 44.2883,-10.70728c5.69291,-1.41225 11.36763,-2.81528 17.09692,-4.20907c1.04582,-0.25845 2.09164,-0.5169 3.17384,-0.77535c5.99302,-1.47687 12.00422,-2.91681 18.00633,-4.34753c18.00633,-4.26445 35.83078,-8.75966 53.74618,-13.4764c0.80938,-0.2123 1.61875,-0.4246 2.45541,-0.6369c0.80028,-0.2123 1.60966,-0.4246 2.43722,-0.64613c7.96644,-2.07684 15.91469,-4.0983 23.9175,-6.11053c10.91293,-2.76912 21.82586,-5.57517 32.82973,-8.42737c0.67296,-0.17538 1.34593,-0.35076 2.02799,-0.52613c6.22037,-1.62455 12.45893,-3.25834 18.64292,-4.9475c1.21861,-0.32306 1.21861,-0.32306 2.4645,-0.66459c1.42777,-0.38768 2.84646,-0.78459 4.27423,-1.18149c2.98287,-0.82151 5.34734,-1.21841 8.47571,-1.21841l0,-1.84608c0.94579,-0.08307 1.89157,-0.15692 2.86464,-0.23999c5.73838,-0.7292 11.18575,-2.53836 16.73316,-4.19984c2.30081,-0.68305 4.59252,-1.35687 6.89333,-2.03069c1.0822,-0.32306 2.17349,-0.64613 3.30116,-0.97842c4.30151,-1.25534 8.63031,-2.4276 13.00457,-3.5814c14.09587,-3.77524 28.19173,-7.77201 42.2876,-11.81493c1.80063,-0.5169 3.59217,-1.02458 5.39281,-1.54148c10.54916,-2.99988 21.09833,-6.16592 31.46561,-9.78424c2.66457,-0.88612 5.33824,-1.74455 8.01191,-2.59375c0.6184,-0.20307 1.2368,-0.39691 1.87339,-0.60921c4.44702,-1.41225 4.44702,-1.41225 6.4841,-1.41225l0,-1.84608c0.63659,-0.14769 1.28227,-0.29537 1.93704,-0.44306c13.82304,-3.30449 26.82762,-8.77812 39.65031,-14.76866c2.32809,-1.07073 4.66528,-2.123 7.01156,-3.1568c21.37115,-9.50733 42.2876,-21.22995 60.38488,-36.36783c2.01889,-1.5784 2.01889,-1.5784 3.83771,-1.5784l0,-1.84608c1.37321,-1.22765 2.81008,-2.39068 4.26514,-3.51679c3.35573,-2.66759 6.43863,-5.34441 9.36693,-8.48275c0.55474,-0.54459 1.11858,-1.09842 1.6915,-1.66147c3.5558,-3.49833 6.68417,-7.02435 9.54881,-11.0765c1.72788,-2.35376 3.58308,-4.55982 5.45646,-6.80282c4.43792,-5.46441 7.94825,-11.26111 11.45858,-17.35318c0.75481,-1.24611 0.75481,-1.24611 1.51872,-2.5199c1.25499,-2.05838 1.25499,-2.05838 2.06436,-4.29214c1.25499,-3.14757 2.90102,-5.94439 4.60162,-8.87966l0.28192,0.13846z"/>
   <path stroke="null" stroke-width="0" id="svg_4" fill="#F9FBFB" d="m1174.7986,504.35935c1.75516,0.6369 1.75516,0.6369 3.63764,1.84608c0.69115,2.10453 0.69115,2.10453 1.01854,4.55982c0.47289,3.25834 0.76391,4.61521 2.6191,7.43971c1.30046,7.25511 1.0731,14.86097 1.0822,22.2453c0.00909,1.02458 0.01819,2.04915 0.02728,3.10142c0.02728,11.81493 -2.91011,22.2453 -6.84786,33.22949c-0.39105,1.11688 -0.39105,1.11688 -0.78209,2.25222c-1.82792,5.10442 -4.15601,9.41502 -7.12069,13.93793c-0.50018,0.83074 -1.00035,1.66147 -1.51872,2.5199c-8.43933,13.84562 -18.64292,26.12207 -31.19279,36.27553c-0.80028,0.66459 -1.60966,1.33841 -2.43722,2.02146c-15.2781,12.46106 -32.92067,22.3376 -51.01794,29.99885c-2.64639,1.11688 -5.2473,2.3076 -7.84821,3.53525c-29.91961,13.84562 -61.83993,22.79912 -93.66931,31.47571c-0.90941,0.25845 -1.81882,0.50767 -2.75551,0.76612c-12.54987,3.45217 -25.09974,6.7382 -37.74055,9.87654c-5.62925,1.41225 -11.27669,2.84297 -16.91504,4.26445c-1.83701,0.47075 -3.67402,0.93227 -5.51103,1.40302c-1.2368,0.31383 -2.4736,0.62767 -3.71949,0.9415c-3.10109,0.78459 -6.20218,1.56917 -9.27599,2.35376c-14.73245,3.71986 -29.46491,7.4951 -44.10642,11.35341c-9.54881,2.51067 -19.09763,4.95673 -28.64644,7.3751c-1.46415,0.36922 -2.9374,0.73843 -4.41064,1.11688c-2.9283,0.73843 -5.85661,1.47687 -8.78491,2.2153c-2.89193,0.73843 -5.78385,1.46764 -8.66668,2.20607c-11.54952,2.92604 -23.09903,5.81516 -34.55761,8.68582c-3.0829,0.76612 -6.15671,1.53225 -9.27599,2.3076c-18.8248,4.68905 -37.64961,9.32272 -56.56535,13.75332c-14.18681,3.30449 -28.46456,6.69205 -42.65137,10.15346c-3.05562,0.74766 -6.11124,1.50456 -9.18505,2.25222c-3.2466,0.80305 -6.49319,1.60609 -9.7307,2.39991c-5.60197,1.38456 -11.18575,2.75989 -16.8241,4.10753c-28.5555,6.86743 -57.02006,14.39945 -85.21179,22.61451c-0.90032,0.25845 -0.90032,0.25845 -1.81882,0.52613c-64.56817,18.83004 -132.77397,42.4599 -180.06333,92.30414l-1.81882,1.84608c-3.81953,-4.38445 -3.75587,-9.23041 -3.75587,-14.86097c0,-1.05227 -0.00909,-2.0953 -0.00909,-3.17526c0.00909,-1.08919 0.00909,-2.16915 0.01819,-3.2768c-0.00909,-1.08919 -0.00909,-2.17838 -0.01819,-3.30449c0,-1.04304 0.00909,-2.0953 0.00909,-3.16603l0,-2.87989c0.10913,-2.25222 0.39105,-4.07984 1.02763,-6.23053c0.27282,-0.95996 0.54565,-1.92916 0.81847,-2.91681c0.3092,-1.0615 0.62749,-2.11376 0.94579,-3.19372c0.4638,-1.59686 0.4638,-1.59686 0.9276,-3.21218c0.94579,-2.67682 0.94579,-2.67682 2.76461,-4.5229c0.54565,-1.40302 1.03673,-2.83374 1.47325,-4.26445c0.24554,-0.75689 0.48199,-1.51379 0.71843,-2.28914c0.18188,-0.58152 0.35467,-1.1538 0.53655,-1.75378l1.81882,0c0.23645,-0.81228 0.4638,-1.62455 0.70934,-2.46452c2.84646,-7.86431 9.09411,-14.30714 14.64151,-20.30691c1.31865,-1.47687 2.58273,-2.99988 3.80134,-4.55059c2.11893,-2.66759 4.55615,-4.67982 7.18435,-6.79358c1.01854,-0.83997 1.01854,-0.83997 2.05527,-1.70763c9.63975,-7.95662 19.9161,-14.58405 30.5562,-21.04534c1.71879,-1.04304 3.41938,-2.10453 5.11998,-3.16603c20.3708,-12.36875 43.92454,-20.95304 66.38699,-28.61428l5.10179,-1.77224c24.19033,-8.47352 48.74442,-15.6917 73.57133,-22.06069c1.72788,-0.44306 1.72788,-0.44306 3.49214,-0.89535c2.97377,-0.75689 5.94755,-1.51379 8.93041,-2.26145c2.49179,-0.62767 4.98357,-1.26457 7.47536,-1.90147c0.94579,-0.23999 1.89157,-0.47998 2.86464,-0.7292c1.8552,-0.47075 3.7013,-0.9415 5.5565,-1.42148c5.59288,-1.42148 11.18575,-2.76912 16.8241,-4.07984c5.26549,-1.22765 10.54916,-2.52913 15.82375,-3.83062c2.319,-0.56306 4.64709,-1.13534 6.96609,-1.70763c3.17384,-0.77535 6.35678,-1.55071 9.54881,-2.33529c2.49179,-0.61844 4.99267,-1.22765 7.49354,-1.83685c0.69115,-0.17538 1.3823,-0.34153 2.10074,-0.5169c4.28332,-1.05227 8.59393,-1.95685 12.91363,-2.82451c8.34839,-1.67994 16.64222,-3.5814 24.91786,-5.48287c1.61875,-0.36922 3.2466,-0.74766 4.86535,-1.11688c9.82164,-2.24299 19.55233,-4.5229 29.37397,-6.82128c6.49319,-1.52302 13.00457,-3.00911 19.46139,-4.46752c23.4628,-5.27057 46.9256,-10.70728 70.38839,-16.24553c1.48234,-0.35076 2.95559,-0.69228 4.43792,-1.03381c7.8755,-1.83685 15.73281,-3.72909 23.55374,-5.74132c5.13817,-1.31072 10.27634,-2.47375 15.45998,-3.57217c3.27388,-0.71074 6.39316,-1.54148 9.54881,-2.67682c5.32915,-1.86454 10.82199,-2.95373 16.36939,-4.11676c12.82269,-2.74143 25.4635,-5.85208 38.19525,-9.32272c1.57328,-0.4246 3.13747,-0.85843 4.71075,-1.28303c5.10179,-1.39379 10.1854,-2.82451 15.2781,-4.25522c1.13676,-0.31383 2.27353,-0.6369 3.44667,-0.95996c12.91363,-3.61832 25.82727,-7.22741 38.46808,-11.63032c3.57398,-1.24611 7.19344,-2.3076 10.82199,-3.35064c15.45998,-4.49521 30.64714,-10.06115 45.47054,-16.33783c1.45506,-0.58152 2.91921,-1.1538 4.37427,-1.73532c22.37151,-9.11965 44.74301,-20.21461 63.84064,-35.16788c1.06401,-0.82151 2.11893,-1.63378 3.18294,-2.45529c6.01121,-4.67982 11.64046,-9.41502 16.8241,-15.04557c2.32809,-2.36299 4.66528,-4.72597 7.04793,-7.03358c2.21896,-2.07684 2.21896,-2.07684 2.95559,-4.96596c1.49143,-1.55994 3.01015,-3.09219 4.54705,-4.61521c2.4645,-2.9445 4.41974,-5.92593 6.36588,-9.23041c1.01854,-1.55994 2.04617,-3.11988 3.07381,-4.67059c3.92865,-6.23976 7.15706,-13.01488 8.74853,-20.21461l0.16369,0.15692zm-814.83205,366.44744l0.90941,1.84608l-0.90941,-1.84608zm0,21.22995l0.90941,2.76912l-0.90941,-2.76912z"/>
   <path stroke="null" stroke-width="0" id="svg_5" fill="#F9FBFB" d="m602.77922,952.95747c-0.54565,4.97519 -1.33683,9.78424 -2.50088,14.67636c-0.1546,0.66459 -0.3092,1.32918 -0.47289,2.01223c-2.11893,8.88889 -4.59252,17.72239 -7.11159,26.49129c-0.65478,2.37222 -1.19133,4.67059 -1.62785,7.09819c-0.80938,4.28291 -1.80063,8.51044 -2.83736,12.73797c-0.22735,0.93227 -0.22735,0.93227 -0.45471,1.883c-0.66387,2.68605 -1.3823,5.31672 -2.27353,7.92893c-1.45506,4.62444 -2.26443,9.41502 -3.18294,14.12253c-0.14551,0.74766 -0.30011,1.50456 -0.45471,2.27991c-0.12732,0.68305 -0.26373,1.3661 -0.40014,2.06761c-0.53655,2.05838 -1.37321,3.73832 -2.32809,5.63055c-0.50018,2.03069 -0.95488,4.07061 -1.36412,6.11053c-0.23645,1.1538 -0.47289,2.3076 -0.70934,3.4891c-0.39105,1.96608 -0.773,3.93216 -1.13676,5.89823c-0.86394,4.57829 -1.98252,8.94427 -3.34663,13.3841c-0.80938,2.81528 -1.45506,5.63978 -2.08255,8.49198c-0.79119,3.57217 -1.64603,7.0705 -2.72823,10.52267c-1.47325,4.78135 -2.44631,9.59963 -3.41029,14.58405c-0.68206,3.04604 -0.68206,3.04604 -1.546,5.64901c-0.9276,2.84297 -1.63694,5.64901 -2.29172,8.56582c-0.23645,1.04304 -0.47289,2.08607 -0.71843,3.16603c-0.36376,1.61532 -0.36376,1.61532 -0.72753,3.25834c-0.24554,1.07996 -0.49108,2.15992 -0.74572,3.2768c-1.25499,5.56594 -1.25499,5.56594 -2.41903,11.1688c-0.49108,2.51067 -1.12767,4.96596 -1.78245,7.43971c-0.23645,0.88612 -0.47289,1.78147 -0.70934,2.69528c-0.65478,2.15069 -0.65478,2.15069 -1.56419,3.07373c-2.55544,0.29537 -5.0927,0.53536 -7.64814,0.73843c-1.74607,0.15692 -3.48304,0.31383 -5.22002,0.47075c-1.42777,0.12 -1.42777,0.12 -2.88283,0.24922c-51.83641,4.66136 -103.67283,11.53802 -154.59983,20.30691c-1.95523,0.33229 -3.91956,0.66459 -5.87479,0.99688c-6.30222,1.07073 -12.54987,2.18761 -18.91574,3.31372c-4.59252,0.82151 -9.18505,1.62455 -13.82304,2.4276c-23.9175,4.11676 -23.9175,4.11676 -47.74407,8.88889c-5.27458,1.12611 -10.45822,1.83685 -15.82375,2.27068c0.41833,-6.53513 1.95523,-11.53802 4.54705,-17.53779c3.29207,-7.71663 3.29207,-7.71663 5.91117,-15.6917c1.20952,-4.31983 2.85555,-8.36276 4.59252,-12.46106c1.56419,-3.78447 3.03743,-7.60586 4.50158,-11.44571c0.27282,-0.71074 0.54565,-1.42148 0.82756,-2.15992c1.59147,-4.18138 3.16475,-8.36276 4.73803,-12.55336c0.72753,-1.883 1.44596,-3.76601 2.1644,-5.64901c0.35467,-0.9415 0.70025,-1.87377 1.06401,-2.84297c5.36552,-13.75332 14.36869,-24.27599 23.9175,-35.26018c1.30046,-1.50456 2.53726,-3.04604 3.76496,-4.60598c2.08255,-2.43683 4.23785,-4.22753 6.71145,-6.23053c0.54565,-0.70151 1.09129,-1.41225 1.64603,-2.13223c2.74642,-3.42448 5.95664,-6.1013 9.27599,-8.94427c0.81847,-0.7292 1.64603,-1.46764 2.49179,-2.2153c11.45858,-10.06115 23.64468,-19.38387 36.64925,-27.32203c1.2368,-0.78459 2.48269,-1.56917 3.71949,-2.35376c27.55515,-17.35318 56.92911,-30.55267 87.21249,-41.90608c0.96398,-0.35999 1.93704,-0.7292 2.9283,-1.10765c19.09763,-7.15357 38.37713,-13.2918 57.92947,-19.01465c5.25639,-1.53225 10.54916,-3.08296 15.73281,-4.74443c7.02975,-2.2153 14.09587,-4.17215 21.18927,-6.11976l6.87515,-1.9107c1.46415,-0.40614 2.9374,-0.81228 4.40155,-1.20918c1.01854,-0.28614 1.01854,-0.28614 2.06436,-0.58152c3.10109,-0.83997 5.63835,-1.31072 8.87585,-1.31072l-0.27282,-0.05538z"/>
   <path stroke="null" stroke-width="0" id="svg_6" fill="#000204" d="m1223.90678,953.88051l1.81882,0l-0.90941,1.84608l-0.90941,-1.84608z"/>
  </g>
 </g>
</svg>