<!DOCTYPE svg PUBLIC "-//W3C//DTD SVG 1.1//EN" "http://www.w3.org/Graphics/SVG/1.1/DTD/svg11.dtd">
<!-- Uploaded to: SVG Repo, www.svgrepo.com, Transformed by: SVG Repo Mixer Tools -->
<svg width="256px" height="256px" viewBox="0 0 24.00 24.00" fill="none" xmlns="http://www.w3.org/2000/svg" stroke="#fcfcfd">
<g id="SVGRepo_bgCarrier" stroke-width="0">
<rect x="0" y="0" width="24.00" height="24.00" rx="12" fill="#0e2f52" strokewidth="0"/>
</g>
<g id="SVGRepo_tracerCarrier" stroke-linecap="round" stroke-linejoin="round"/>
<g id="SVGRepo_iconCarrier"> <path fill-rule="evenodd" clip-rule="evenodd" d="M6.39113 10.5439C6.39051 9.44976 6.7016 8.37924 7.28617 7.46394C7.86503 6.55596 8.69417 5.84514 9.6681 5.42194C10.9668 4.85935 12.4322 4.85935 13.7309 5.42194C14.7052 5.84498 15.5347 6.55581 16.1138 7.46394C17.3021 9.32579 17.309 11.731 16.1314 13.5999L18.525 17.9719L16.0037 17.4719L15.1973 19.9999L12.9753 15.9249C12.1382 16.1414 11.2618 16.1414 10.4247 15.9249L8.20267 19.9999L7.39635 17.4709L4.875 17.9719L7.26863 13.5999C6.69465 12.6895 6.38988 11.6281 6.39113 10.5439V10.5439Z" stroke="#fdfcfd" stroke-width="1.5" stroke-linecap="round" stroke-linejoin="round"/> <path fill-rule="evenodd" clip-rule="evenodd" d="M11.4504 8.32691C11.4973 8.22925 11.5943 8.16742 11.7005 8.16742C11.8066 8.16742 11.9036 8.22925 11.9506 8.32691L12.4683 9.37291C12.5069 9.45209 12.5788 9.50881 12.6633 9.52691L13.7475 9.74991C13.8468 9.77396 13.9266 9.84932 13.9583 9.94877C13.99 10.0482 13.9688 10.1574 13.9025 10.2369L13.1284 11.1369C13.0738 11.2009 13.0483 11.2856 13.0582 11.3699L13.2015 12.5879C13.216 12.6944 13.1719 12.8004 13.0868 12.8633C13.0018 12.9262 12.8898 12.9357 12.7959 12.8879L11.8209 12.3799C11.7419 12.3384 11.6483 12.3384 11.5693 12.3799L10.5943 12.8879C10.5004 12.9357 10.3884 12.9262 10.3034 12.8633C10.2183 12.8004 10.1742 12.6944 10.1887 12.5879L10.3321 11.3729C10.3419 11.2886 10.3164 11.2039 10.2619 11.1399L9.4877 10.2399C9.41982 10.159 9.39893 10.0473 9.43286 9.94637C9.46679 9.84548 9.55041 9.77067 9.65248 9.74991L10.7367 9.52591C10.8212 9.50781 10.893 9.45109 10.9317 9.37191L11.4504 8.32691Z" stroke="#fdfcfd" stroke-width="1.5" stroke-linecap="round" stroke-linejoin="round"/> <path d="M7.90164 13.1977C7.6795 12.8481 7.21601 12.7448 6.8664 12.9669C6.51679 13.189 6.41345 13.6525 6.63559 14.0021L7.90164 13.1977ZM7.95112 14.4679L8.49338 13.9498L8.49105 13.9474L7.95112 14.4679ZM10.1224 15.8399L10.3567 15.1274L10.3557 15.1271L10.1224 15.8399ZM10.2422 16.6561C10.6433 16.7596 11.0523 16.5184 11.1558 16.1173C11.2593 15.7162 11.018 15.3072 10.6169 15.2037L10.2422 16.6561ZM16.7644 14.0021C16.9865 13.6525 16.8832 13.189 16.5336 12.9669C16.184 12.7448 15.7205 12.8481 15.4983 13.1977L16.7644 14.0021ZM15.4489 14.4679L14.9089 13.9474L14.9066 13.9498L15.4489 14.4679ZM13.2775 15.8399L13.0443 15.1271L13.0433 15.1274L13.2775 15.8399ZM12.783 15.2037C12.382 15.3072 12.1407 15.7162 12.2442 16.1173C12.3477 16.5184 12.7567 16.7596 13.1578 16.6561L12.783 15.2037ZM6.63559 14.0021C6.86081 14.3566 7.12062 14.6871 7.41118 14.9885L8.49105 13.9474C8.27068 13.7188 8.07317 13.4676 7.90164 13.1977L6.63559 14.0021ZM7.40886 14.986C8.0972 15.7064 8.94842 16.2449 9.88921 16.5527L10.3557 15.1271C9.65246 14.897 9.01285 14.4935 8.49337 13.9498L7.40886 14.986ZM9.88822 16.5524C10.0051 16.5908 10.1231 16.6254 10.2422 16.6561L10.6169 15.2037C10.5294 15.1811 10.4426 15.1557 10.3567 15.1274L9.88822 16.5524ZM15.4983 13.1977C15.3268 13.4676 15.1293 13.7188 14.9089 13.9474L15.9888 14.9885C16.2794 14.6871 16.5392 14.3566 16.7644 14.0021L15.4983 13.1977ZM14.9066 13.9498C14.3871 14.4935 13.7475 14.897 13.0443 15.1271L13.5108 16.5527C14.4516 16.2449 15.3028 15.7064 15.9911 14.986L14.9066 13.9498ZM13.0433 15.1274C12.9574 15.1557 12.8706 15.1811 12.783 15.2037L13.1578 16.6561C13.2769 16.6254 13.3949 16.5908 13.5118 16.5524L13.0433 15.1274Z" fill="#fdfcfd"/> </g>
</svg>