<!DOCTYPE svg PUBLIC "-//W3C//DTD SVG 1.1//EN" "http://www.w3.org/Graphics/SVG/1.1/DTD/svg11.dtd">
<!-- Uploaded to: SVG Repo, www.svgrepo.com, Transformed by: SVG Repo Mixer Tools -->
<svg fill="#fcfcfd" version="1.1" id="Capa_1" xmlns="http://www.w3.org/2000/svg" xmlns:xlink="http://www.w3.org/1999/xlink" width="800px" height="800px" viewBox="-88.88 -88.88 601.00 601.00" xml:space="preserve" stroke="#fcfcfd">
<g id="SVGRepo_bgCarrier" stroke-width="0">
<rect x="-88.88" y="-88.88" width="601.00" height="601.00" rx="300.5" fill="#0e2f52" strokewidth="0"/>
</g>
<g id="SVGRepo_tracerCarrier" stroke-linecap="round" stroke-linejoin="round"/>
<g id="SVGRepo_iconCarrier"> <g> <g> <path d="M47.496,312.802c1.458,1.465,3.697,1.805,5.522,0.84l14.628-7.727l1.688,16.455c0.162,1.582,1.105,2.938,2.457,3.66 c0.402,0.217,0.84,0.375,1.307,0.466c2.024,0.399,4.072-0.571,5.046-2.392l17.263-32.27l17.26,32.27 c0.973,1.819,3.02,2.791,5.045,2.392c0.467-0.091,0.903-0.249,1.307-0.466c1.35-0.723,2.294-2.078,2.457-3.66l1.691-16.455 l14.628,7.727c1.821,0.965,4.064,0.625,5.521-0.84c1.453-1.464,1.782-3.705,0.811-5.522l-19.912-37.226 c5.373-6.479,8.607-14.793,8.607-23.848c0-20.633-16.785-37.418-37.414-37.418c-20.635,0-37.418,16.785-37.418,37.418 c0,9.055,3.232,17.368,8.605,23.848l-19.91,37.226C45.71,309.097,46.041,311.338,47.496,312.802z M95.407,227.267 c10.44,0,18.938,8.496,18.938,18.939c0,10.441-8.497,18.939-18.938,18.939c-10.444,0-18.941-8.498-18.941-18.939 C76.466,235.763,84.963,227.267,95.407,227.267z"/> <path d="M316.788,232.467v105.765H30.151V145.25h159.043c0.363-1.565,0.856-3.116,1.522-4.633l12.615-28.76H20.036 C8.987,111.857,0,120.847,0,131.894v219.692c0,11.05,8.987,20.036,20.036,20.036h306.866c11.048,0,20.036-8.986,20.036-20.036 v-116.1c-0.033,0-0.063,0-0.096-0.002C336.645,235.125,326.617,234.107,316.788,232.467z"/> <path d="M420.263,137.332l-76.447-75.222c-2.751-3.458-7.034-5.337-11.446-5.019l-107.492-5.468c-4.545,0-9.302,3.427-11.3,7.978 c-1.994,4.547-1.31,9.827,1.784,13.716L230.4,92.225l-3.463,7.895c-10.914,24.891-7.241,16.519-20.133,45.896 c-2.067,4.714-1.05,10.212,2.567,13.872c19.128,19.346,40.926,34.47,64.79,44.938c0.004,0.002,0.004,0.002,0.007,0.002 c23.872,10.469,49.756,16.27,76.939,17.232c5.145,0.185,9.875-2.791,11.942-7.504l23.598-53.792l12.121-0.875l0.026,32.104 l-1.666-0.001c-1.159-0.102-2.185,0.732-2.316,1.888l-2.158,18.717c-0.066,0.571,0.103,1.145,0.465,1.592 c0.361,0.445,0.887,0.729,1.458,0.783l17.138-0.014c0.575-0.059,1.101-0.339,1.456-0.787c0.366-0.445,0.528-1.021,0.464-1.591 c-0.432-3.676-0.86-7.35-1.29-11.025l-0.896-7.69c-0.135-1.15-1.163-1.982-2.319-1.881l-1.664,0.002l-0.027-32.847l6.261-0.669 c3.798-0.697,6.76-3.802,8.345-7.422C424.043,146.5,423.608,140.787,420.263,137.332z"/> </g> </g> </g>
</svg>