<!DOCTYPE svg PUBLIC "-//W3C//DTD SVG 1.1//EN" "http://www.w3.org/Graphics/SVG/1.1/DTD/svg11.dtd">
<!-- Uploaded to: SVG Repo, www.svgrepo.com, Transformed by: SVG Repo Mixer Tools -->
<svg fill="#fcfcfd" height="800px" width="800px" version="1.1" id="Capa_1" xmlns="http://www.w3.org/2000/svg" xmlns:xlink="http://www.w3.org/1999/xlink" viewBox="-30.36 -30.36 364.32 364.32" xml:space="preserve" stroke="#fcfcfd">
<g id="SVGRepo_bgCarrier" stroke-width="0">
<rect x="-30.36" y="-30.36" width="364.32" height="364.32" rx="182.16" fill="#0e2f52" strokewidth="0"/>
</g>
<g id="SVGRepo_tracerCarrier" stroke-linecap="round" stroke-linejoin="round"/>
<g id="SVGRepo_iconCarrier"> <g> <path d="M173.295,101.734c7.646-9.378,10.033-22.545,5.084-34.51c-7.177-17.352-27.061-25.6-44.414-18.421 c-12.812,5.299-20.651,17.527-20.992,30.547l-59.762-8.82L24,46.483c-1.462-1.203-3.458-1.526-5.226-0.846 c-1.767,0.681-3.029,2.26-3.306,4.133L8.89,94.343c-0.276,1.873,0.478,3.75,1.972,4.912c1.495,1.162,3.5,1.43,5.247,0.699 L51.022,85.37l20.165,2.977c-20.401,17.118-28.516,45.203-20.141,70.665c2.002,6.086,7.851,10.033,14.244,9.627l80.552-5.112 l3.667,121.904c0.18,5.984,4.13,11.193,9.843,12.988c52.013,16.335,108.533-7.045,133.807-55.35 c2.774-5.302,1.889-11.786-2.208-16.146L173.295,101.734z M97.772,92.27l18.579,2.742c5.398,11.195,16.261,18.193,28.005,19.106 l0.442,14.72L97.772,92.27z"/> <path d="M135.802,31.299c6.68,4.283,15.885,7.945,25.918,10.313c7.432,1.753,14.835,2.68,21.411,2.68 c19.261,0,23.951-7.69,25.032-12.274c1.099-4.656,0.022-11.737-11.342-19.024c-6.681-4.283-15.885-7.945-25.919-10.313 C163.472,0.927,156.068,0,149.492,0c-19.262,0-23.951,7.69-25.032,12.274C123.362,16.931,124.438,24.012,135.802,31.299z M149.492,15c5.434,0,11.646,0.788,17.967,2.279c13.195,3.112,21.601,7.962,24.781,10.952c-1.743,0.526-4.682,1.06-9.109,1.06 c-5.434,0-11.647-0.788-17.968-2.279c-13.194-3.112-21.6-7.962-24.78-10.952C142.126,15.533,145.065,15,149.492,15z"/> </g> </g>
</svg>