<!DOCTYPE svg PUBLIC "-//W3C//DTD SVG 1.1//EN" "http://www.w3.org/Graphics/SVG/1.1/DTD/svg11.dtd">
<!-- Uploaded to: SVG Repo, www.svgrepo.com, Transformed by: SVG Repo Mixer Tools -->
<svg fill="#fcfcfd" version="1.1" id="Layer_1" xmlns="http://www.w3.org/2000/svg" xmlns:xlink="http://www.w3.org/1999/xlink" width="800px" height="800px" viewBox="-33.28 -33.28 194.56 194.56" enable-background="new 0 0 128 128" xml:space="preserve" stroke="#fcfcfd" transform="rotate(0)">
<g id="SVGRepo_bgCarrier" stroke-width="0">
<rect x="-33.28" y="-33.28" width="194.56" height="194.56" rx="97.28" fill="#0e2f52" strokewidth="0"/>
</g>
<g id="SVGRepo_tracerCarrier" stroke-linecap="round" stroke-linejoin="round"/>
<g id="SVGRepo_iconCarrier"> <path d="M86.5,38.1c8.4,0,15.2,6.8,15.2,15.2s-6.8,15.2-15.2,15.2s-15.2-6.8-15.2-15.2S78.1,38.1,86.5,38.1z M105.6,72.4H70.9 c-5,0-9.9,0.7-13.5,5.6c-1.6,2.4-16,20.6-16,20.6H21.1c-3.6,0-6.6,3-6.6,6.6s3,6.6,6.6,6.6h23.1c1.7,0,3.4-0.7,4.6-1.9l13.5-16.4 c0.4-0.4,0.7-0.6,1.3-0.6c1.1,0,1.9,0.7,1.9,1.9v29.9h42V95.2c0-1.1,0.7-1.9,1.9-1.9c1.1,0,1.9,0.7,1.9,1.9v29.5h13.3V91.5 C124.7,81,116.1,72.4,105.6,72.4z M7.5,79.5c0,0,0-1.7,0-2h24.7c-0.4,0.7-0.6,1.6-0.8,2.3C31.2,81,31.3,82,31.6,83l-20.7-0.1 C9,82.9,7.5,81.4,7.5,79.5 M34.8,34.9c0,3.5-0.1,34.9-0.1,38.4H11.1L25.9,61l-0.1-26.1C27.2,34.9,33.5,34.9,34.8,34.9 M37.1,83h-1 c-0.6-0.6-0.8-1.5-0.6-2.4c0.3-1.6,1.5-3,2-3.2l0,0c0.8-0.3,1.4-1,1.4-1.9L39,32.9c0-1.1-0.9-2.1-2.1-2.1c0,0-8.6,0-11,0 c0-2,0-4.8,0-4.8c0-0.8-0.5-1.6-1.2-1.9s-1.7-0.2-2.2,0.4L8,38.8c-2.6,2.5-4.5,7.3-4.5,10.8L3.3,79.5c0,4.2,3.4,7.6,7.5,7.6L37,87.2 c1.1,0,2.1-0.9,2.1-2.1l0,0C39.1,83.9,38.3,83,37.1,83"/> </g>
</svg>