<svg width="210" height="210" xmlns="http://www.w3.org/2000/svg">
 <defs>
  <path d="m0,210l210,0l0,-210l-210,0l0,210z" id="a"/>
 </defs>
 <g>
  <title>Layer 1</title>
  <ellipse stroke="#000" ry="103.5" rx="104.5" id="svg_4" cy="105.5" cx="104.5" fill="#0e2f52"/>
  <g stroke="null" id="svg_1" fill-rule="evenodd" fill="#fcfcfd">
   <path stroke="null" id="svg_2" d="m107.72033,150.59454c0,0.58466 0.68284,0.58791 0.80509,0c0.90751,-4.32866 2.2853,-7.21407 4.43845,-10.01504l-4.84264,0.00325c-0.22137,0 -0.40089,0.1754 -0.40089,0.39302l0,9.61877zm34.81481,-60.09347c0.05507,6.25804 -1.77318,11.63585 -13.38142,23.0584l-9.18086,9.02761c-4.17853,4.11104 -7.93524,7.86478 -10.15666,11.61744l9.06742,0l1.07272,-1.05564l13.17216,-12.97516c10.96946,-10.79459 12.49924,-22.21281 10.15776,-29.66075c-0.19934,-0.6323 -0.75663,-0.67453 -0.75112,-0.01083l0,-0.00108zm-11.55978,38.18165l-11.0025,10.83573c-6.65987,6.55362 -12.25253,12.20102 -12.25253,18.37678l0.00661,1.71934c0,0.46556 0.59032,0.54027 0.77095,0.05197c2.05732,-5.52938 8.92755,-11.43013 21.52921,-9.33834c0,0 54.90126,9.3351 55.36162,9.37516c0.53636,0.04656 0.80178,-0.47314 0.45596,-0.87699c-0.20816,-0.24361 -25.55135,-25.18159 -25.55135,-25.18159l-29.31797,-4.96204zm-39.71693,11.89678a0.40089,0.39411 0 0 1 -0.40089,-0.39411l0,-5.59001c0,-0.21871 0.17952,-0.39411 0.40089,-0.39411l9.60819,0.00217c0.22137,0 0.40089,-0.17648 0.40089,-0.39411c-0.02533,-5.02051 -3.87125,-8.43212 -19.28246,-5.79248l-33.27733,5.62791s-25.3443,24.93798 -25.55135,25.18159c-0.34693,0.40385 -0.0815,0.92355 0.45486,0.87699c0.46257,-0.04006 55.36162,-9.37624 55.36162,-9.37624c12.60276,-2.09071 19.47299,3.81113 21.52921,9.33943c0.18062,0.48722 0.77205,0.41468 0.77205,-0.05197l0.0011,-18.64204c0,-0.21654 -0.17952,-0.39302 -0.40089,-0.39302l-9.6159,0zm-15.33962,-78.12811c-10.96946,10.7935 -12.49924,22.21281 -10.15666,29.66075c0.19824,0.6323 0.75553,0.67453 0.74892,0.01083c-0.05507,-6.25804 1.77538,-11.63477 13.38252,-23.05732l25.0238,-24.61534c6.65987,-6.55471 12.25253,-12.2021 12.25253,-18.37678l0,-9.63284c0,-0.58683 -0.68284,-0.58899 -0.80619,0c-1.64542,7.86045 -4.84044,10.9624 -11.42982,17.44565l-29.014,28.56397l-0.0011,0.00108zm41.27534,-29.16054c0,-0.58466 -0.68284,-0.58791 -0.80619,0c-1.64542,7.86153 -4.83273,11.01113 -11.42101,17.49654l-26.28265,25.83663c-12.75365,12.55074 -14.96076,24.69654 -8.4738,32.50285c0.43283,0.52078 0.8976,0.20788 0.61676,-0.42009c-4.28976,-9.54839 5.99465,-19.67278 10.89126,-24.49082l23.22309,-22.85052c6.65987,-6.55362 12.25253,-12.20102 12.25253,-18.37678l0,-9.6978zm-37.78846,59.55753c-12.75475,12.55074 -6.89005,24.67164 0.55068,28.00962c0.652,0.29233 0.91192,-0.22845 0.41191,-0.65287c-5.96492,-5.08764 -4.1543,-13.6421 3.34811,-21.024l21.19881,-20.86051c6.65987,-6.55362 12.25143,-12.19994 12.25143,-18.3757l0,-9.63176c0,-0.58466 -0.68284,-0.58791 -0.80399,0c-1.64652,7.85937 -4.83493,10.94833 -11.42432,17.43158l-25.53263,25.10364zm28.29151,40.89491c0,0.58574 0.68284,0.58791 0.80399,0c1.64762,-7.85937 4.83493,-11.01113 11.42322,-17.49437l10.43971,-10.25107c12.75365,-12.54857 14.95965,-24.69546 8.4727,-32.50069c-0.43283,-0.52078 -0.8976,-0.20896 -0.61455,0.41901c4.28756,9.54839 -5.99576,19.6717 -10.89236,24.49082l-7.38015,7.26388c-6.66097,6.55254 -12.25253,12.19886 -12.25253,18.37461l0,9.6978zm12.25584,-34.45389c-6.58938,6.48325 -9.7789,9.57221 -11.42432,17.43266c-0.12335,0.58899 -0.80509,0.58683 -0.80509,0l0,-9.63176c0,-6.17468 5.59156,-11.82316 12.25253,-18.3757l5.35477,-5.27062c7.50351,-7.38406 9.31413,-15.93636 3.34811,-21.024c-0.49891,-0.42442 -0.23899,-0.94629 0.41411,-0.65287c7.43963,3.3369 13.30432,15.4578 0.54847,28.00962l-9.68859,9.51266zm62.07656,42.68138c0.54627,0 0.87227,-0.29991 0.87227,-0.73408c0,-0.48397 -0.27314,-0.69293 -0.88218,-0.69293l-0.51543,0l0,1.42701l0.52534,0zm-1.32162,-2.08638l1.34365,0c1.1443,0 1.65863,0.44391 1.65863,1.33281c0,0.64962 -0.39979,1.01125 -0.81941,1.1769l1.2192,2.00301l-0.90311,0l-1.05179,-1.78647l-0.6498,0l0,1.78647l-0.79848,0l0,-4.51272l0.0011,0zm4.69396,2.25095c0,-1.78647 -1.35576,-3.24271 -3.2567,-3.24271c-1.90093,0 -3.26661,1.35338 -3.26661,3.24271c0,1.78647 1.36568,3.24271 3.26661,3.24271c1.79741,0 3.2567,-1.35338 3.2567,-3.24271zm-7.11143,0c0,-2.19789 1.61899,-3.78947 3.85473,-3.78947c2.13222,0 3.85473,1.59158 3.85473,3.78947c0,2.20006 -1.61678,3.78947 -3.85473,3.78947c-2.23574,0 -3.85473,-1.58941 -3.85473,-3.78947z" fill="#fcfcfd"/>
  </g>
 </g>
</svg>