<!DOCTYPE svg PUBLIC "-//W3C//DTD SVG 1.1//EN" "http://www.w3.org/Graphics/SVG/1.1/DTD/svg11.dtd">
<!-- Uploaded to: SVG Repo, www.svgrepo.com, Transformed by: SVG Repo Mixer Tools -->
<svg fill="#fcfcfd" version="1.1" id="Capa_1" xmlns="http://www.w3.org/2000/svg" xmlns:xlink="http://www.w3.org/1999/xlink" width="256px" height="256px" viewBox="-55.62 -55.62 667.45 667.45" xml:space="preserve" stroke="#fcfcfd">
<g id="SVGRepo_bgCarrier" stroke-width="0">
<rect x="-55.62" y="-55.62" width="667.45" height="667.45" rx="333.725" fill="#0e2f52" strokewidth="0"/>
</g>
<g id="SVGRepo_tracerCarrier" stroke-linecap="round" stroke-linejoin="round"/>
<g id="SVGRepo_iconCarrier"> <g> <g> <path d="M173.684,493.875c39.216,0,75.324-13.225,104.423-35.229c29.108,22.014,65.206,35.229,104.422,35.229 c95.778,0,173.685-77.905,173.685-173.674c0-95.778-77.906-173.684-173.685-173.684c-39.216,0-75.323,13.225-104.422,35.228 c-29.108-22.013-65.207-35.228-104.423-35.228C77.906,146.518,0,224.423,0,320.201C0,415.96,77.906,493.875,173.684,493.875z M278.106,250.022c13.53,20.062,21.438,44.217,21.438,70.179s-7.908,50.117-21.438,70.179 c-13.531-20.062-21.439-44.217-21.439-70.179S264.585,270.084,278.106,250.022z M382.538,194.33 c69.405,0,125.871,56.466,125.871,125.871c0,69.404-56.466,125.861-125.871,125.861c-26.029,0-50.241-7.946-70.332-21.534 c21.965-29.09,35.161-65.149,35.161-104.327s-13.196-75.248-35.161-104.336C332.297,202.276,356.509,194.33,382.538,194.33z M173.684,194.33c26.029,0,50.241,7.946,70.332,21.535c-21.965,29.089-35.161,65.159-35.161,104.336s13.196,75.237,35.161,104.327 c-20.091,13.588-44.303,21.534-70.332,21.534c-69.404,0-125.871-56.457-125.871-125.861 C47.812,250.796,104.279,194.33,173.684,194.33z"/> <path d="M274.75,77.868h-0.191c0,0-26.431-28.946-49.496-7.803c-23.065,21.143-2.888,69.854,49.496,90.997l0.191,0.182 c52.374-21.143,72.56-70.036,49.495-91.178C301.181,48.922,274.75,77.868,274.75,77.868z"/> </g> </g> </g>
</svg>