<svg width="14" height="17" viewBox="0 0 14 17" fill="none" xmlns="http://www.w3.org/2000/svg">
<path d="M5.20697 11.5665C6.4067 11.4699 7.61194 11.4699 8.81166 11.5665C9.46498 11.6046 10.1152 11.6864 10.7582 11.8112C12.1496 12.0929 13.058 12.5526 13.4473 13.294C13.7397 13.8726 13.7397 14.5615 13.4473 15.1401C13.058 15.8815 12.1857 16.3708 10.7438 16.6229C10.1013 16.7524 9.45092 16.8367 8.79724 16.875C8.19166 16.9417 7.58607 16.9417 6.97327 16.9417H5.87023C5.63953 16.912 5.41604 16.8972 5.19976 16.8972C4.54607 16.8636 3.89556 16.7818 3.25323 16.6525C1.86182 16.3856 0.953438 15.9111 0.564131 15.1697C0.413845 14.8825 0.334614 14.5617 0.333339 14.2356C0.330298 13.9075 0.407133 13.5837 0.556922 13.294C0.939019 12.5526 1.8474 12.0707 3.25323 11.8112C3.89839 11.6846 4.55112 11.6028 5.20697 11.5665ZM7.00211 0.275024C9.41896 0.275024 11.3782 2.28988 11.3782 4.77532C11.3782 7.26077 9.41896 9.27562 7.00211 9.27562C4.58526 9.27562 2.62601 7.26077 2.62601 4.77532C2.62601 2.28988 4.58526 0.275024 7.00211 0.275024Z" fill="#FAF9F9"/>
</svg>
